<svg width="230" height="230" viewBox="0 0 230 230" fill="none" xmlns="http://www.w3.org/2000/svg">
<path fill-rule="evenodd" clip-rule="evenodd" d="M156.25 83.3337C156.25 94.3844 151.86 104.982 144.046 112.796C136.232 120.61 125.634 125 114.583 125C103.532 125 92.9344 120.61 85.1204 112.796C77.3064 104.982 72.9165 94.3844 72.9165 83.3337C72.9165 72.283 77.3064 61.6849 85.1204 53.8709C92.9344 46.0569 103.532 41.667 114.583 41.667C125.634 41.667 136.232 46.0569 144.046 53.8709C151.86 61.6849 156.25 72.283 156.25 83.3337V83.3337ZM135.417 83.3337C135.417 88.859 133.222 94.158 129.315 98.0651C125.408 101.972 120.109 104.167 114.583 104.167C109.058 104.167 103.759 101.972 99.8518 98.0651C95.9448 94.158 93.7498 88.859 93.7498 83.3337C93.7498 77.8083 95.9448 72.5093 99.8518 68.6023C103.759 64.6953 109.058 62.5003 114.583 62.5003C120.109 62.5003 125.408 64.6953 129.315 68.6023C133.222 72.5093 135.417 77.8083 135.417 83.3337V83.3337Z" fill="white"/>
<path fill-rule="evenodd" clip-rule="evenodd" d="M114.583 0C51.3021 0 0 51.3021 0 114.583C0 177.865 51.3021 229.167 114.583 229.167C177.865 229.167 229.167 177.865 229.167 114.583C229.167 51.3021 177.865 0 114.583 0ZM20.8333 114.583C20.8333 136.354 28.2604 156.396 40.7083 172.312C49.4503 160.832 60.7281 151.529 73.6608 145.128C86.5934 138.728 100.831 135.404 115.26 135.417C129.503 135.403 143.562 138.641 156.364 144.883C169.166 151.125 180.375 160.208 189.135 171.437C198.161 159.6 204.238 145.783 206.863 131.131C209.489 116.479 208.588 101.412 204.234 87.1769C199.881 72.942 192.2 59.9484 181.828 49.2712C171.456 38.594 158.69 30.5402 144.587 25.7761C130.485 21.0121 115.45 19.6747 100.728 21.8747C86.0054 24.0747 72.0187 29.7489 59.9247 38.4276C47.8307 47.1064 37.9772 58.5403 31.1795 71.7833C24.3817 85.0262 20.8352 99.6976 20.8333 114.583V114.583ZM114.583 208.333C93.062 208.366 72.1903 200.962 55.5 187.375C62.218 177.758 71.1598 169.905 81.5645 164.486C91.9692 159.067 103.529 156.242 115.26 156.25C126.845 156.241 138.265 158.996 148.572 164.286C158.879 169.576 167.775 177.248 174.521 186.667C157.701 200.695 136.485 208.364 114.583 208.333V208.333Z" fill="white"/>
</svg>
