<svg width="22" height="22" viewBox="0 0 22 22" fill="none" xmlns="http://www.w3.org/2000/svg">
<path d="M2.13891 8.2864L3.05558 7.74862V9.77751H18.9445V7.76696L19.8489 8.2864C19.9886 8.35946 20.1511 8.37573 20.3024 8.33182C20.4538 8.2879 20.5824 8.18719 20.6613 8.05073C20.7401 7.91427 20.7632 7.75261 20.7257 7.59952C20.6882 7.44642 20.593 7.31374 20.46 7.22918L11 1.78418L1.5278 7.22918C1.45477 7.26738 1.39022 7.31997 1.33804 7.38376C1.28585 7.44756 1.24711 7.52125 1.22415 7.60041C1.20119 7.67956 1.19447 7.76255 1.20441 7.84437C1.21435 7.92618 1.24073 8.00515 1.28198 8.0765C1.32323 8.14786 1.37848 8.21013 1.44442 8.25958C1.51036 8.30903 1.58562 8.34463 1.66567 8.36424C1.74573 8.38385 1.82892 8.38706 1.91025 8.37368C1.99157 8.36031 2.06935 8.33062 2.13891 8.2864ZM10.9084 4.34474C10.9827 4.30183 11.067 4.27924 11.1528 4.27924C11.2386 4.27924 11.3229 4.30183 11.3972 4.34474L15.5039 6.72196H13.5361L11.1528 5.35307L8.76946 6.72196H6.8078L10.9084 4.34474Z" fill="#007BFF"/>
<path d="M20.0749 16.5005H19.5555V15.9811C19.5555 15.7947 19.4815 15.6159 19.3497 15.4841C19.2179 15.3523 19.0391 15.2783 18.8527 15.2783H17.1111V10.7744H14.6666V15.2783H12.2222V10.7744H9.77772V15.2783H7.33328V10.7744H4.88883V15.2783H3.14717C2.96078 15.2783 2.78203 15.3523 2.65023 15.4841C2.51843 15.6159 2.44439 15.7947 2.44439 15.9811V16.5005H1.92495C1.73856 16.5005 1.5598 16.5746 1.42801 16.7064C1.29621 16.8382 1.22217 17.0169 1.22217 17.2033V18.945H20.7777V17.2033C20.7777 17.0169 20.7037 16.8382 20.5719 16.7064C20.4401 16.5746 20.2613 16.5005 20.0749 16.5005V16.5005Z" fill="#007BFF"/>
</svg>
