<svg width="16" height="16" viewBox="0 0 16 16" fill="none" xmlns="http://www.w3.org/2000/svg">
<g clip-path="url(#clip0)">
<path fill-rule="evenodd" clip-rule="evenodd" d="M0.999917 11.4997C0.999917 11.6323 1.0526 11.7594 1.14636 11.8532C1.24013 11.947 1.36731 11.9997 1.49992 11.9997H13.2929L10.1459 15.1457C10.052 15.2395 9.99929 15.3669 9.99929 15.4997C9.99929 15.6324 10.052 15.7598 10.1459 15.8537C10.2398 15.9475 10.3671 16.0003 10.4999 16.0003C10.6327 16.0003 10.76 15.9475 10.8539 15.8537L14.8539 11.8537C14.9005 11.8072 14.9374 11.752 14.9626 11.6913C14.9878 11.6305 15.0008 11.5654 15.0008 11.4997C15.0008 11.4339 14.9878 11.3688 14.9626 11.308C14.9374 11.2473 14.9005 11.1921 14.8539 11.1457L10.8539 7.14566C10.76 7.05177 10.6327 6.99902 10.4999 6.99902C10.3671 6.99902 10.2398 7.05177 10.1459 7.14566C10.052 7.23954 9.99929 7.36688 9.99929 7.49966C9.99929 7.63243 10.052 7.75977 10.1459 7.85366L13.2929 10.9997H1.49992C1.36731 10.9997 1.24013 11.0523 1.14636 11.1461C1.0526 11.2399 0.999917 11.367 0.999917 11.4997V11.4997ZM14.9999 4.49966C14.9999 4.63226 14.9472 4.75944 14.8535 4.85321C14.7597 4.94698 14.6325 4.99966 14.4999 4.99966H2.70692L5.85392 8.14565C5.90041 8.19214 5.93728 8.24733 5.96244 8.30807C5.9876 8.36881 6.00055 8.43391 6.00055 8.49965C6.00055 8.5654 5.9876 8.6305 5.96244 8.69124C5.93728 8.75198 5.90041 8.80717 5.85392 8.85365C5.80743 8.90014 5.75224 8.93702 5.6915 8.96218C5.63076 8.98734 5.56566 9.00029 5.49992 9.00029C5.43417 9.00029 5.36907 8.98734 5.30833 8.96218C5.24759 8.93702 5.1924 8.90014 5.14592 8.85365L1.14592 4.85366C1.09935 4.80721 1.06241 4.75203 1.0372 4.69129C1.012 4.63054 0.999023 4.56542 0.999023 4.49966C0.999023 4.43389 1.012 4.36877 1.0372 4.30802C1.06241 4.24728 1.09935 4.1921 1.14592 4.14566L5.14592 0.145655C5.2398 0.0517684 5.36714 -0.000976562 5.49992 -0.000976562C5.63269 -0.000976563 5.76003 0.0517684 5.85392 0.145655C5.9478 0.239542 6.00055 0.366879 6.00055 0.499655C6.00055 0.632431 5.9478 0.759768 5.85392 0.853655L2.70692 3.99966H14.4999C14.6325 3.99966 14.7597 4.05233 14.8535 4.1461C14.9472 4.23987 14.9999 4.36705 14.9999 4.49966Z" fill="#007BFF"/>
</g>
<defs>
<clipPath id="clip0">
<rect width="16" height="16" fill="white"/>
</clipPath>
</defs>
</svg>
