<svg width="20" height="20" viewBox="0 0 20 20" fill="none" xmlns="http://www.w3.org/2000/svg">
<g clip-path="url(#clip0)">
<path fill-rule="evenodd" clip-rule="evenodd" d="M7.18606 19.172C7.97506 19.682 8.88706 20.027 10.0001 20C11.1111 20.027 12.0251 19.682 12.8141 19.172L12.7971 17H7.20306L7.18606 19.172ZM12.6971 16C12.6971 11.643 17.3271 10.152 16.9801 5.81195C16.7621 3.07395 14.9071 0.00195312 10.0001 0.00195312C5.09306 0.00195312 3.23806 3.07395 3.01906 5.81295C2.67206 10.152 7.30306 11.643 7.30306 16H12.6971ZM5.00006 5.99995C5.20706 3.40195 7.11306 1.99995 10.0001 1.99995C12.8861 1.99995 14.6541 3.37095 14.8611 5.96895C14.9741 7.39295 14.1561 8.34195 13.0521 9.89495C12.2381 11.041 11.4491 12.238 11.0001 14H9.00006C8.55106 12.238 7.76206 11.041 6.94706 9.89395C5.84406 8.34195 4.88606 7.42395 5.00006 5.99995Z" fill="black"/>
</g>
<defs>
<clipPath id="clip0">
<rect width="20" height="20" fill="white"/>
</clipPath>
</defs>
</svg>
