<svg width="16" height="12" viewBox="0 0 16 12" fill="none" xmlns="http://www.w3.org/2000/svg">
<path fill-rule="evenodd" clip-rule="evenodd" d="M14.5 1H1.5C1.36739 1 1.24021 1.05268 1.14645 1.14645C1.05268 1.24021 1 1.36739 1 1.5V10.5C1 10.6326 1.05268 10.7598 1.14645 10.8536C1.24021 10.9473 1.36739 11 1.5 11H14.5C14.6326 11 14.7598 10.9473 14.8536 10.8536C14.9473 10.7598 15 10.6326 15 10.5V1.5C15 1.36739 14.9473 1.24021 14.8536 1.14645C14.7598 1.05268 14.6326 1 14.5 1ZM1.5 0C1.10218 0 0.720644 0.158035 0.43934 0.43934C0.158035 0.720644 0 1.10218 0 1.5L0 10.5C0 10.8978 0.158035 11.2794 0.43934 11.5607C0.720644 11.842 1.10218 12 1.5 12H14.5C14.8978 12 15.2794 11.842 15.5607 11.5607C15.842 11.2794 16 10.8978 16 10.5V1.5C16 1.10218 15.842 0.720644 15.5607 0.43934C15.2794 0.158035 14.8978 0 14.5 0H1.5Z" fill="#007BFF"/>
<path d="M10.648 5.64595C10.7222 5.57189 10.8179 5.52306 10.9215 5.50637C11.025 5.48968 11.1312 5.50598 11.225 5.55295L15.002 7.49995V11H1.00195V9.99995L3.64795 7.64595C3.72969 7.56452 3.83707 7.51385 3.95189 7.50255C4.06672 7.49125 4.18191 7.52001 4.27795 7.58395L6.93795 9.35695L10.648 5.64695V5.64595Z" fill="#007BFF"/>
<path fill-rule="evenodd" clip-rule="evenodd" d="M4.50195 5C4.69894 5 4.89399 4.9612 5.07598 4.88582C5.25797 4.81044 5.42333 4.69995 5.56261 4.56066C5.7019 4.42137 5.81239 4.25601 5.88777 4.07403C5.96315 3.89204 6.00195 3.69698 6.00195 3.5C6.00195 3.30302 5.96315 3.10796 5.88777 2.92597C5.81239 2.74399 5.7019 2.57863 5.56261 2.43934C5.42333 2.30005 5.25797 2.18956 5.07598 2.11418C4.89399 2.0388 4.69894 2 4.50195 2C4.10413 2 3.7226 2.15804 3.44129 2.43934C3.15999 2.72064 3.00195 3.10218 3.00195 3.5C3.00195 3.89782 3.15999 4.27936 3.44129 4.56066C3.7226 4.84196 4.10413 5 4.50195 5V5Z" fill="#007BFF"/>
</svg>
