<svg width="65" height="65" viewBox="0 0 65 65" fill="none" xmlns="http://www.w3.org/2000/svg">
<rect width="65" height="65" fill="white"/>
<path d="M63.5 32.5C63.5 49.6208 49.6208 63.5 32.5 63.5C15.3792 63.5 1.5 49.6208 1.5 32.5C1.5 15.3792 15.3792 1.5 32.5 1.5C49.6208 1.5 63.5 15.3792 63.5 32.5Z" stroke="#008DFF" stroke-width="3"/>
<path d="M31.8875 21.775C33.4822 21.775 34.775 20.4822 34.775 18.8875C34.775 17.2928 33.4822 16 31.8875 16C30.2928 16 29 17.2928 29 18.8875C29 20.4822 30.2928 21.775 31.8875 21.775Z" fill="#008DFF"/>
<path d="M28.8 49.55C28.8 50.4131 29.3376 50.95 30.2 50.95C31.0645 50.95 31.6 50.4131 31.6 49.55V36.6H33V49.55C33 50.4117 33.5369 50.95 34.4 50.95C35.2631 50.95 35.8 50.4131 35.8 49.55V27.5H36.5V35.4198C36.5 37.0963 38.6042 37.0963 38.6 35.4198V26.9127C38.6 25.0605 37.2658 24 35.1 24H29.5C27.526 24 26 24.8533 26 26.8609V35.9C26 37.3 28.1 37.3 28.1 35.9V27.5H28.8V49.55Z" fill="#008DFF"/>
</svg>
