<svg width="65" height="65" viewBox="0 0 65 65" fill="none" xmlns="http://www.w3.org/2000/svg">
<rect width="65" height="65" fill="white"/>
<path d="M63.5 32.5C63.5 49.6208 49.6208 63.5 32.5 63.5C15.3792 63.5 1.5 49.6208 1.5 32.5C1.5 15.3792 15.3792 1.5 32.5 1.5C49.6208 1.5 63.5 15.3792 63.5 32.5Z" stroke="#008DFF" stroke-width="3"/>
<!--<line x1="32" y1="12" x2="32" y2="54" stroke="black" stroke-width="2"/>-->
<path d="M44.8875 23.775C46.4822 23.775 47.775 22.4822 47.775 20.8875C47.775 19.2928 46.4822 18 44.8875 18C43.2928 18 42 19.2928 42 20.8875C42 22.4822 43.2928 23.775 44.8875 23.775Z" fill="#008DFF"/>
<path d="M19.8875 23.775C21.4822 23.775 22.775 22.4822 22.775 20.8875C22.775 19.2928 21.4822 18 19.8875 18C18.2928 18 17 19.2928 17 20.8875C17 22.4822 18.2928 23.775 19.8875 23.775Z" fill="#008DFF"/>
<path d="M52.3563 40.05L48.22 28.6841L48.1962 28.5672C48.1962 28.4013 48.3355 28.2669 48.5091 28.2669C48.6568 28.2669 48.7807 28.3656 48.8136 28.4972L51.6255 35.85C51.8124 36.2707 52.581 36.55 53.0864 36.55C53.7619 36.55 53.8319 35.2235 53.8172 35.15L51.0053 28.0751C50.761 26.4504 49.1202 25 47.2477 25H43.5832C41.7107 25 39.9488 26.4504 39.7038 28.0751L37.0179 35.2375C36.957 35.3768 37.0179 36.5941 37.7487 36.5941C38.3164 36.5941 39.0717 36.3743 39.2089 35.8724L41.9214 28.4776C41.9443 28.4178 41.9848 28.3662 42.0375 28.3298C42.0902 28.2933 42.1527 28.2736 42.2168 28.2732C42.389 28.2732 42.5283 28.4048 42.5283 28.57L42.5094 28.6757L38.4788 40.0514C38.4704 40.085 38.4788 40.8914 38.4788 40.9257C38.4788 41.1679 39.064 41.8007 39.3174 41.8007H41.9172V50.6172C41.9172 51.3452 42.5584 51.9507 43.3172 51.9507C44.076 51.9507 44.7172 51.3445 44.7172 50.6172V41.4437C44.7172 41.2456 46.1172 41.2519 46.1172 41.45V50.55C46.1172 51.278 46.7591 51.95 47.5172 51.95C48.2774 51.95 48.9172 51.2773 48.9172 50.55V41.8H51.6255C51.8789 41.8 52.3563 41.1672 52.3563 40.925C52.3563 40.869 52.3766 40.0983 52.3563 40.05Z" fill="#008DFF"/>
<path d="M16.8 50.55C16.8 51.4131 17.3376 51.95 18.2 51.95C19.0645 51.95 19.6 51.4131 19.6 50.55V37.6H21V50.55C21 51.4117 21.5369 51.95 22.4 51.95C23.2631 51.95 23.8 51.4131 23.8 50.55V28.5H24.5V36.4198C24.5 38.0963 26.6042 38.0963 26.6 36.4198V27.9127C26.6 26.0605 25.2658 25 23.1 25H17.5C15.526 25 14 25.8533 14 27.8609V36.9C14 38.3 16.1 38.3 16.1 36.9V28.5H16.8V50.55Z" fill="#008DFF"/>
</svg>
