<svg width="16" height="16" viewBox="0 0 16 16" fill="none" xmlns="http://www.w3.org/2000/svg">
<path d="M14.6754 1.44467C14.4487 1.14973 14.1571 0.911053 13.8232 0.74721C13.4892 0.583368 13.122 0.498775 12.75 0.500013H12.3631L10.6131 7.25001H1.25V8.25001C1.25 9.70258 1.83175 11.0039 2.88803 11.9143C3.8875 12.7756 5.259 13.25 6.75 13.25H7.94137L7.69137 15.5H14V7.81376L15.1066 3.54548C15.2011 3.18574 15.2114 2.80903 15.1366 2.44466C15.0619 2.08029 14.904 1.73809 14.6754 1.44467V1.44467ZM13 14.5H8.80863L9.05863 12.25H6.75C4.10047 12.25 2.25 10.6051 2.25 8.25001H13V14.5ZM14.1386 3.29451L13.1131 7.25001H11.6462L13.1243 1.54889C13.4891 1.64781 13.8001 1.88656 13.99 2.21334C14.1799 2.54013 14.2333 2.92861 14.1387 3.29451H14.1386Z" fill="black"/>
</svg>
