<svg width="65" height="65" viewBox="0 0 65 65" fill="none" xmlns="http://www.w3.org/2000/svg">
<rect width="65" height="65" fill="white"/>
<path d="M63.5 32.5C63.5 49.6208 49.6208 63.5 32.5 63.5C15.3792 63.5 1.5 49.6208 1.5 32.5C1.5 15.3792 15.3792 1.5 32.5 1.5C49.6208 1.5 63.5 15.3792 63.5 32.5Z" stroke="#008DFF" stroke-width="3"/>
<path d="M31.8875 21.775C33.4822 21.775 34.775 20.4822 34.775 18.8875C34.775 17.2928 33.4822 16 31.8875 16C30.2928 16 29 17.2928 29 18.8875C29 20.4822 30.2928 21.775 31.8875 21.775Z" fill="#008DFF"/>
<path d="M39.3563 38.05L35.22 26.6841L35.1962 26.5672C35.1962 26.4013 35.3355 26.2669 35.5091 26.2669C35.6568 26.2669 35.7807 26.3656 35.8136 26.4972L38.6255 33.85C38.8124 34.2707 39.581 34.55 40.0864 34.55C40.7619 34.55 40.8319 33.2235 40.8172 33.15L38.0053 26.0751C37.761 24.4504 36.1202 23 34.2477 23H30.5832C28.7107 23 26.9488 24.4504 26.7038 26.0751L24.0179 33.2375C23.957 33.3768 24.0179 34.5941 24.7487 34.5941C25.3164 34.5941 26.0717 34.3743 26.2089 33.8724L28.9214 26.4776C28.9443 26.4178 28.9848 26.3662 29.0375 26.3298C29.0902 26.2933 29.1527 26.2736 29.2168 26.2732C29.389 26.2732 29.5283 26.4048 29.5283 26.57L29.5094 26.6757L25.4788 38.0514C25.4704 38.085 25.4788 38.8914 25.4788 38.9257C25.4788 39.1679 26.064 39.8007 26.3174 39.8007H28.9172V48.6172C28.9172 49.3452 29.5584 49.9507 30.3172 49.9507C31.076 49.9507 31.7172 49.3445 31.7172 48.6172V39.4437C31.7172 39.2456 33.1172 39.2519 33.1172 39.45V48.55C33.1172 49.278 33.7591 49.95 34.5172 49.95C35.2774 49.95 35.9172 49.2773 35.9172 48.55V39.8H38.6255C38.8789 39.8 39.3563 39.1672 39.3563 38.925C39.3563 38.869 39.3766 38.0983 39.3563 38.05Z" fill="#008DFF"/>
</svg>
