<svg width="16" height="16" viewBox="0 0 16 16" fill="none" xmlns="http://www.w3.org/2000/svg">
<g clip-path="url(#clip0)">
<path d="M16 14.275C16 15.2277 15.2283 16 14.276 16H1.72351C1.49705 15.9999 1.27281 15.9553 1.06361 15.8685C0.854411 15.7818 0.664341 15.6547 0.504253 15.4945C0.344164 15.3344 0.217194 15.1442 0.13059 14.935C0.0439866 14.7257 -0.000553879 14.5015 -0.000488209 14.275V1.72499C-0.000488228 1.26771 0.181131 0.829151 0.504429 0.505759C0.827728 0.182367 1.26623 0.000620864 1.72351 0.000488281H14.276C15.2285 0.000488281 16 0.772988 16 1.72499V14.275Z" fill="#1B75BB"/>
<path d="M8.03523 8.20838C8.03523 8.50857 7.91598 8.79647 7.70372 9.00873C7.49145 9.221 7.20355 9.34025 6.90336 9.34025C6.60317 9.34025 6.31527 9.221 6.103 9.00873C5.89074 8.79647 5.77148 8.50857 5.77148 8.20838V5.01913C5.77908 4.72398 5.90167 4.44347 6.11311 4.23741C6.32455 4.03134 6.60811 3.91602 6.90336 3.91602C7.1986 3.91602 7.48217 4.03134 7.69361 4.23741C7.90505 4.44347 8.02764 4.72398 8.03523 5.01913V8.20838Z" fill="white"/>
<path d="M7.70105 6.89936C7.26105 6.89936 6.9043 6.65011 6.9043 6.34311C6.9043 6.03611 7.26105 5.78711 7.70105 5.78711H9.9458C10.3858 5.78711 10.7428 6.03611 10.7428 6.34311C10.7428 6.65011 10.3858 6.89936 9.9458 6.89936H7.70105" fill="white"/>
<path d="M10.85 8.9678C10.6385 8.5883 10.7538 8.1213 11.1073 7.9248C11.4608 7.7278 11.9193 7.87505 12.1303 8.2538L13.208 10.1873C13.4195 10.5668 13.3033 11.0336 12.9503 11.2308C12.5968 11.4276 12.1388 11.28 11.9273 10.9013L10.85 8.9678Z" fill="white"/>
<path d="M13.1278 11.9043C12.8518 12.0641 12.4768 11.9306 12.2893 11.6078C12.1028 11.2851 12.1745 10.8933 12.4505 10.7338L13.8593 9.91809C14.1353 9.75834 14.5105 9.89209 14.698 10.2143C14.8845 10.5381 14.8123 10.9286 14.5365 11.0888L13.1278 11.9043Z" fill="white"/>
<path d="M6.76779 3.4809C7.40568 3.4809 7.92279 2.96379 7.92279 2.3259C7.92279 1.68801 7.40568 1.1709 6.76779 1.1709C6.1299 1.1709 5.61279 1.68801 5.61279 2.3259C5.61279 2.96379 6.1299 3.4809 6.76779 3.4809Z" fill="white"/>
<path d="M12.0901 8.49347C12.0901 8.71796 12.001 8.93326 11.8423 9.09204C11.6836 9.25082 11.4683 9.34009 11.2439 9.34022H6.97136C6.74934 9.33641 6.53771 9.24553 6.38205 9.08717C6.22639 8.92882 6.13916 8.71565 6.13916 8.4936C6.13916 8.27154 6.22639 8.05838 6.38205 7.90002C6.53771 7.74166 6.74934 7.65079 6.97136 7.64697H11.2439C11.355 7.64697 11.4651 7.66887 11.5678 7.71141C11.6705 7.75396 11.7638 7.81631 11.8423 7.89492C11.9209 7.97353 11.9833 8.06685 12.0258 8.16955C12.0683 8.27225 12.0901 8.38232 12.0901 8.49347Z" fill="white"/>
<path d="M11.2094 10.8422L11.1574 11.0597C10.7342 12.8345 9.16766 14.0747 7.34841 14.0747C5.18491 14.0747 3.42491 12.3147 3.42491 10.1512C3.42491 8.79621 4.11716 7.55471 5.27641 6.82996L5.33516 6.79346V5.79346L5.15291 5.88771C3.54441 6.71871 2.54541 8.35271 2.54541 10.1527C2.54541 12.8012 4.70016 14.956 7.34891 14.956C9.42741 14.956 11.2592 13.623 11.9069 11.6387L11.9309 11.5657L11.2094 10.8445" fill="white"/>
</g>
<defs>
<clipPath id="clip0">
<rect width="16" height="16" fill="white"/>
</clipPath>
</defs>
</svg>
